<svg width="118" height="13" viewBox="0 0 118 13" fill="none" xmlns="http://www.w3.org/2000/svg">
<path fill-rule="evenodd" clip-rule="evenodd" d="M4.23624 2.01759C3.73528 2.14653 3.26121 2.34247 2.82416 2.59529C2.30408 2.89614 1.83642 3.27753 1.43824 3.72241C0.951998 4.26568 0.569365 4.90363 0.3214 5.60519C0.569366 6.30675 0.951998 6.94469 1.43824 7.48796C1.83642 7.93284 2.30408 8.31424 2.82416 8.61509C3.26121 8.86791 3.73527 9.06385 4.23624 9.19279C4.7372 9.06385 5.21127 8.86791 5.64832 8.61509C6.1684 8.31424 6.63606 7.93284 7.03424 7.48796C7.52048 6.94469 7.90311 6.30674 8.15108 5.60519C7.90311 4.90363 7.52048 4.26568 7.03424 3.72241C6.63606 3.27753 6.1684 2.89614 5.64832 2.59529C5.21127 2.34247 4.7372 2.14653 4.23624 2.01759ZM8.47248 3.72241C8.47248 2.16267 7.20806 0.898254 5.64832 0.898254H2.82416C1.26442 0.898254 0 2.16267 0 3.72241V7.48796C0 9.0477 1.26442 10.3121 2.82416 10.3121H5.64832C7.20806 10.3121 8.47248 9.0477 8.47248 7.48796V3.72241Z" fill="white"/>
<circle cx="6.11913" cy="4.19309" r="1.41208" fill="white"/>
<path d="M26.2236 0.144973H25.2088C24.9979 0.144973 24.8793 0.263588 24.8793 0.474459V3.66388C24.3917 2.96537 23.4296 2.56999 21.5449 2.56999C18.171 2.56999 17.1298 3.82203 17.143 6.00981C17.1562 8.21077 18.171 9.46282 21.5449 9.46282C23.4428 9.46282 24.4049 9.06744 24.8793 8.34257V9.04108C24.8793 9.25195 24.9979 9.37056 25.2088 9.37056H26.2236C26.4345 9.37056 26.5531 9.25195 26.5531 9.04108V0.474459C26.5531 0.263588 26.4345 0.144973 26.2236 0.144973ZM21.8744 8.03944C19.7921 8.03944 18.83 7.57816 18.83 6.00981C18.83 4.44146 19.7921 3.99336 21.8744 3.99336C23.9699 3.99336 24.9452 4.44146 24.9452 6.00981C24.9452 7.57816 23.9699 8.03944 21.8744 8.03944Z" fill="white"/>
<path d="M28.9841 1.52881C29.6826 1.52881 29.9462 1.31794 29.9462 0.948917V0.579894C29.9462 0.21087 29.6826 0 28.9841 0C28.2724 0 28.0088 0.21087 28.0088 0.579894V0.948917C28.0088 1.31794 28.2724 1.52881 28.9841 1.52881ZM28.4701 9.37056H29.4849C29.6958 9.37056 29.8144 9.25195 29.8144 9.04108V3.00491C29.8144 2.79404 29.6958 2.67542 29.4849 2.67542H28.4701C28.2592 2.67542 28.1406 2.79404 28.1406 3.00491V9.04108C28.1406 9.25195 28.2592 9.37056 28.4701 9.37056Z" fill="white"/>
<path d="M39.9767 2.67542H38.9618C38.751 2.67542 38.6324 2.79404 38.6324 3.00491V3.62434C38.1974 2.93901 37.3012 2.56999 35.4429 2.56999C32.2272 2.56999 31.1201 3.72977 31.1333 5.73304C31.1464 7.74949 32.2272 8.90928 35.4429 8.90928C37.3012 8.90928 38.1974 8.5139 38.6324 7.80221V9.0279C38.6324 10.4381 37.3276 10.7544 35.5747 10.7544C34.2436 10.7544 33.4265 10.5699 32.9784 10.1218C32.8598 9.98999 32.7148 9.87138 32.4644 9.87138H31.6209C31.2914 9.87138 31.186 10.1613 31.2519 10.3854C31.5814 11.532 33.2156 12.0723 35.5484 12.0723C38.8169 12.0723 40.3061 11.0312 40.3061 9.09379V3.00491C40.3061 2.79404 40.1875 2.67542 39.9767 2.67542ZM35.7065 7.48591C33.7823 7.48591 32.8202 7.09052 32.8202 5.73304C32.8202 4.37557 33.7823 3.99336 35.7065 3.99336C37.6307 3.99336 38.6982 4.37557 38.6982 5.73304C38.6982 7.09052 37.6307 7.48591 35.7065 7.48591Z" fill="white"/>
<path d="M42.7298 1.52881C43.4283 1.52881 43.6919 1.31794 43.6919 0.948917V0.579894C43.6919 0.21087 43.4283 0 42.7298 0C42.0181 0 41.7545 0.21087 41.7545 0.579894V0.948917C41.7545 1.31794 42.0181 1.52881 42.7298 1.52881ZM42.2158 9.37056H43.2306C43.4415 9.37056 43.5601 9.25195 43.5601 9.04108V3.00491C43.5601 2.79404 43.4415 2.67542 43.2306 2.67542H42.2158C42.0049 2.67542 41.8863 2.79404 41.8863 3.00491V9.04108C41.8863 9.25195 42.0049 9.37056 42.2158 9.37056Z" fill="white"/>
<path d="M48.6088 9.43646C49.1096 9.43646 49.9531 9.3442 50.5198 9.14651C50.7043 9.08062 50.757 8.90928 50.6911 8.72477L50.533 8.11852C50.4802 7.92083 50.3221 7.84175 50.1112 7.90765C49.8081 7.9999 49.3863 8.01308 49.0569 8.01308C48.6483 8.01308 48.3979 7.85493 48.3979 7.38047V4.20423C48.3979 4.12516 48.4506 4.07244 48.5297 4.07244H50.3089C50.5198 4.07244 50.6384 3.95382 50.6384 3.74295V3.00491C50.6384 2.79404 50.5198 2.67542 50.3089 2.67542H48.5297C48.4506 2.67542 48.3979 2.6227 48.3979 2.54363V0.474459C48.3979 0.263588 48.2793 0.144973 48.0684 0.144973H47.0536C46.8427 0.144973 46.7241 0.263588 46.7241 0.474459V2.54363C46.7241 2.6227 46.6714 2.67542 46.5923 2.67542H45.1426C44.9317 2.67542 44.8131 2.79404 44.8131 3.00491V3.74295C44.8131 3.95382 44.9317 4.07244 45.1426 4.07244H46.5923C46.6714 4.07244 46.7241 4.12516 46.7241 4.20423V7.67042C46.7241 8.962 47.4358 9.43646 48.6088 9.43646Z" fill="white"/>
<path d="M54.8619 9.46282H55.679C56.7465 9.46282 58.1699 9.25195 58.618 8.19759C58.7103 9.01472 59.2374 9.37056 60.0941 9.37056H60.2259C60.8453 9.37056 61.2671 9.06744 61.2671 8.63251V8.42164C61.2671 8.21077 61.1485 8.09216 60.9376 8.09216H60.7267C60.4368 8.09216 60.2654 7.93401 60.2654 7.6177V4.995C60.2654 3.49254 59.1979 2.58316 56.0876 2.58316C54.4006 2.58316 53.4253 2.84675 53.0036 3.03126C52.595 3.2026 52.4896 3.37393 52.4896 3.69024V4.01972C52.4896 4.32285 52.7268 4.40192 52.9377 4.36238C53.6362 4.23059 54.4665 3.98018 56.048 3.98018C57.8141 3.98018 58.618 4.29649 58.618 5.10043V5.21905C58.618 5.29812 58.5653 5.35084 58.4862 5.35084H54.8619C53.1354 5.35084 51.8306 5.78576 51.8306 7.35411C51.8306 8.8961 53.1354 9.46282 54.8619 9.46282ZM54.9541 8.07898C54.1238 8.07898 53.4517 7.96036 53.4517 7.31457C53.4517 6.66878 54.1238 6.56335 54.9541 6.56335H58.4862C58.5653 6.56335 58.618 6.61607 58.618 6.69514V7.14324C58.618 8.01308 57.445 8.07898 55.5867 8.07898H54.9541Z" fill="white"/>
<path d="M62.7186 9.37056H63.7334C63.9442 9.37056 64.0629 9.25195 64.0629 9.04108V0.474459C64.0629 0.263588 63.9442 0.144973 63.7334 0.144973H62.7186C62.5077 0.144973 62.3891 0.263588 62.3891 0.474459V9.04108C62.3891 9.25195 62.5077 9.37056 62.7186 9.37056Z" fill="white"/>
<path d="M78.4136 0.144973H77.3988C77.1879 0.144973 77.0693 0.263588 77.0693 0.474459V3.66388C76.5816 2.96537 75.6195 2.56999 73.7349 2.56999C70.361 2.56999 69.3198 3.82203 69.333 6.00981C69.3461 8.21077 70.361 9.46282 73.7349 9.46282C75.6327 9.46282 76.5948 9.06744 77.0693 8.34257V9.04108C77.0693 9.25195 77.1879 9.37056 77.3988 9.37056H78.4136C78.6245 9.37056 78.7431 9.25195 78.7431 9.04108V0.474459C78.7431 0.263588 78.6245 0.144973 78.4136 0.144973ZM74.0644 8.03944C71.982 8.03944 71.0199 7.57816 71.0199 6.00981C71.0199 4.44146 71.982 3.99336 74.0644 3.99336C76.1599 3.99336 77.1352 4.44146 77.1352 6.00981C77.1352 7.57816 76.1599 8.03944 74.0644 8.03944Z" fill="white"/>
<path d="M89.253 5.71986C89.253 3.95382 88.0801 2.56999 84.693 2.56999C81.3981 2.56999 80.067 3.86157 80.067 6.00981C80.067 8.17124 81.4772 9.46282 84.8247 9.46282C86.604 9.46282 87.7901 9.10697 88.515 8.56662C88.7259 8.42164 88.7127 8.21077 88.6072 8.01308L88.4359 7.6836C88.3173 7.47273 88.0932 7.47273 87.9087 7.5518C87.0521 7.90765 86.1427 8.0658 84.9434 8.0658C83.2169 8.0658 82.0966 7.73631 81.8198 6.56335H88.37C89.0817 6.56335 89.253 6.36566 89.253 5.71986ZM84.7457 3.99336C86.6567 3.99336 87.487 4.37556 87.6583 5.42992H81.7935C81.978 4.38874 82.8215 3.99336 84.7457 3.99336Z" fill="white"/>
<path d="M98.7336 7.93401L98.3645 7.53862C98.1668 7.32775 97.9428 7.38047 97.7583 7.47273C96.928 7.88129 96.1899 8.03944 95.0829 8.03944C93.0532 8.03944 91.9989 7.56498 91.9989 6.00981C91.9989 4.46782 93.0532 3.99336 95.0829 3.99336C96.1899 3.99336 96.928 4.15151 97.7583 4.56008C97.9428 4.65233 98.1668 4.70505 98.3645 4.49418L98.7336 4.0988C98.8917 3.94064 98.9576 3.79567 98.7863 3.63752C98.0219 2.96537 96.7566 2.56999 94.9511 2.56999C91.6826 2.56999 90.3119 3.86157 90.3119 6.00981C90.3119 8.17124 91.6826 9.46282 94.9511 9.46282C96.7566 9.46282 98.0219 9.06744 98.7863 8.39529C98.9576 8.23713 98.8917 8.09216 98.7336 7.93401Z" fill="white"/>
<path d="M104.438 9.46282C107.799 9.46282 109.103 8.17124 109.117 6.00981C109.13 3.86157 107.799 2.56999 104.438 2.56999C101.064 2.56999 99.746 3.86157 99.746 6.00981C99.746 8.17124 101.064 9.46282 104.438 9.46282ZM104.438 8.03944C102.356 8.03944 101.433 7.52544 101.433 6.00981C101.433 4.50736 102.356 3.99336 104.438 3.99336C106.507 3.99336 107.43 4.50736 107.43 6.00981C107.43 7.52544 106.507 8.03944 104.438 8.03944Z" fill="white"/>
<path d="M110.764 9.37056H111.779C111.99 9.37056 112.109 9.25195 112.109 9.04108V5.90438C112.109 4.49418 113.361 3.98018 115.127 3.98018C116.168 3.98018 116.734 4.15151 117.314 4.34921C117.644 4.45464 117.894 4.4151 117.894 4.08562V3.67706C117.894 3.37393 117.842 3.1367 117.459 2.93901C117.13 2.76768 116.497 2.58316 115.469 2.58316C113.756 2.58316 112.965 3.0708 112.438 3.74295C112.293 3.92746 112.109 3.86157 112.109 3.67706V3.00491C112.109 2.79404 111.99 2.67542 111.779 2.67542H110.764C110.553 2.67542 110.435 2.79404 110.435 3.00491V9.04108C110.435 9.25195 110.553 9.37056 110.764 9.37056Z" fill="white"/>
</svg>
