<svg width="34" height="34" viewBox="0 0 34 34" fill="none" xmlns="http://www.w3.org/2000/svg">
<rect width="34" height="34" rx="17" fill="#5486ED"/>
<path d="M22.5605 23.6047H12.1976C11.5364 23.6047 11 24.1412 11 24.8024C11 25.4636 11.5364 26 12.1976 26H22.5603C23.2215 26 23.7579 25.4636 23.7579 24.8024C23.7579 24.1412 23.2217 23.6047 22.5605 23.6047Z" fill="white"/>
<path d="M16.5321 22.2099C16.7567 22.4345 17.0615 22.5607 17.3789 22.5607C17.6963 22.5607 18.001 22.4345 18.2257 22.2099L22.5143 17.921C22.9821 17.4532 22.9821 16.695 22.5143 16.2275C22.0465 15.7597 21.2886 15.7597 20.8208 16.2275L18.5767 18.4718V9.16288C18.5767 8.50131 18.0403 7.96525 17.3791 7.96525C16.7179 7.96525 16.1813 8.50113 16.1813 9.16288V18.4718L13.9372 16.2275C13.4694 15.7597 12.7115 15.7597 12.2437 16.2275C11.7758 16.695 11.7758 17.4532 12.2437 17.921L16.5321 22.2099Z" fill="white"/>
</svg>
