<svg width="34" height="34" viewBox="0 0 34 34" fill="none" xmlns="http://www.w3.org/2000/svg">
<path d="M17 34C26.3888 34 34 26.3888 34 17C34 7.61116 26.3888 0 17 0C7.61116 0 0 7.61116 0 17C0 26.3888 7.61116 34 17 34Z" fill="#039BE5"/>
<path d="M7.77889 16.6317L24.1697 10.3119C24.9305 10.0371 25.5949 10.4975 25.3484 11.6478L25.3498 11.6464L22.559 24.7945C22.3521 25.7267 21.7982 25.9533 21.0233 25.5142L16.7733 22.3819L14.7234 24.3567C14.4967 24.5834 14.3055 24.7747 13.8663 24.7747L14.1681 20.4496L22.0447 13.3337C22.3876 13.0319 21.9682 12.8619 21.5163 13.1622L11.7824 19.2907L7.58622 17.9817C6.67531 17.6927 6.65548 17.0708 7.77889 16.6317Z" fill="white"/>
</svg>
