<svg width="34" height="36" viewBox="0 0 34 36" fill="none" xmlns="http://www.w3.org/2000/svg">
<path d="M30.1622 3.49681C29.2713 2.67477 25.6711 0.0612397 17.6519 0.0257327C17.6519 0.0257327 8.19518 -0.544531 3.58519 3.68403C1.01901 6.25075 0.11627 10.0064 0.0210465 14.6627C-0.0741767 19.3189 -0.197376 28.045 8.21401 30.4111H8.22208L8.2167 34.0215C8.2167 34.0215 8.1629 35.4832 9.12535 35.7812C10.2896 36.1428 10.9728 35.0318 12.0843 33.8343C12.6943 33.1769 13.5368 32.2112 14.1716 31.4731C19.9243 31.9573 24.3487 30.8506 24.8512 30.6871C26.0127 30.3105 32.5852 29.4685 33.6542 20.743C34.7576 11.7495 33.1205 6.06084 30.1622 3.49681Z" fill="#7360F2"/>
<path fill-rule="evenodd" clip-rule="evenodd" d="M17.7896 11.6333C17.8027 11.3832 18.016 11.191 18.2662 11.2041C19.202 11.2529 19.9806 11.5362 20.5351 12.1095C21.0875 12.6807 21.3583 13.4786 21.4059 14.4369C21.4183 14.687 21.2255 14.8999 20.9754 14.9123C20.7252 14.9247 20.5123 14.732 20.4999 14.4818C20.4592 13.6615 20.2342 13.1031 19.8831 12.7401C19.5342 12.3793 19.0017 12.1507 18.2189 12.1099C17.9688 12.0968 17.7766 11.8835 17.7896 11.6333Z" fill="white"/>
<path fill-rule="evenodd" clip-rule="evenodd" d="M17.1023 9.18997C17.1206 8.94017 17.3379 8.75248 17.5877 8.77076C19.4922 8.91014 21.0251 9.56088 22.1418 10.7798L22.1419 10.7799C23.2464 11.9868 23.7713 13.4882 23.7332 15.2492C23.7278 15.4996 23.5204 15.6982 23.27 15.6928C23.0196 15.6873 22.821 15.4799 22.8264 15.2295C22.86 13.6766 22.4033 12.4091 21.4728 11.3923C20.5451 10.3797 19.2483 9.80176 17.5215 9.67538C17.2717 9.6571 17.084 9.43977 17.1023 9.18997Z" fill="white"/>
<path fill-rule="evenodd" clip-rule="evenodd" d="M16.3015 6.86735C16.3032 6.61689 16.5077 6.41526 16.7581 6.417C19.3901 6.43534 21.6148 7.31153 23.4009 9.05277C25.2021 10.8086 26.0928 13.1989 26.1153 16.1677C26.1173 16.4182 25.9158 16.6228 25.6653 16.6247C25.4148 16.6266 25.2102 16.4251 25.2083 16.1746C25.1872 13.3927 24.3596 11.254 22.7678 9.70227C21.1611 8.13598 19.1662 7.34084 16.7518 7.32402C16.5013 7.32228 16.2997 7.11782 16.3015 6.86735Z" fill="white"/>
<path d="M18.3324 20.5337C18.3324 20.5337 18.9699 20.5875 19.3131 20.1646L19.9824 19.3227C20.3052 18.9052 21.0842 18.6389 21.847 19.0639C22.4187 19.3899 22.9737 19.7444 23.51 20.1259C24.0162 20.4982 25.0529 21.3632 25.0561 21.3632C25.55 21.7802 25.664 22.3924 25.3278 23.038C25.3278 23.0417 25.3251 23.0482 25.3251 23.0514C24.9548 23.6934 24.4846 24.2724 23.9323 24.7665C23.9258 24.7697 23.9258 24.773 23.9199 24.7762C23.44 25.1772 22.9686 25.4051 22.5055 25.46C22.4374 25.4719 22.3681 25.4762 22.299 25.4729C22.0948 25.4749 21.8916 25.4436 21.6975 25.3804L21.6824 25.3583C20.9691 25.1571 19.778 24.6535 17.7944 23.5593C16.6466 22.9335 15.5538 22.2116 14.5278 21.4014C14.0135 20.9956 13.523 20.5605 13.0585 20.0984L13.009 20.0489L12.9595 19.9994L12.9101 19.9499C12.8934 19.9338 12.8772 19.9171 12.8606 19.9004C12.3985 19.436 11.9634 18.9455 11.5576 18.4312C10.7475 17.4053 10.0256 16.3127 9.39971 15.1651C8.30545 13.181 7.80189 11.991 7.60069 11.2766L7.57863 11.2615C7.51556 11.0673 7.48449 10.8642 7.48664 10.66C7.48287 10.5909 7.48702 10.5216 7.49901 10.4534C7.55675 9.99114 7.78504 9.51933 8.18386 9.03801C8.18709 9.03209 8.19032 9.03209 8.19355 9.02564C8.68758 8.47329 9.26655 8.00329 9.90864 7.63333C9.91187 7.63333 9.91832 7.6301 9.92209 7.6301C10.5677 7.29386 11.1799 7.40792 11.5963 7.8991C11.5995 7.90232 12.463 8.93902 12.8337 9.44526C13.2152 9.98203 13.5697 10.5376 13.8956 11.1098C14.3207 11.8721 14.0543 12.6527 13.6369 12.9744L12.7949 13.6437C12.3699 13.9869 12.4259 14.6244 12.4259 14.6244C12.4259 14.6244 13.6729 19.3442 18.3324 20.5337Z" fill="white"/>
</svg>
