<svg width="34" height="34" viewBox="0 0 34 34" fill="none" xmlns="http://www.w3.org/2000/svg">
<path d="M17.0042 0H16.9958C7.62238 0 0 7.6245 0 17C0 20.7188 1.1985 24.1655 3.23638 26.9641L1.11775 33.2796L7.65213 31.1908C10.3403 32.9715 13.5469 34 17.0042 34C26.3776 34 34 26.3734 34 17C34 7.62663 26.3776 0 17.0042 0Z" fill="#4CAF50"/>
<path d="M27.0993 24.2661C26.6864 25.4377 25.0476 26.4094 23.7405 26.6931C22.8462 26.8845 21.6781 27.0371 17.7459 25.399C12.7162 23.3051 9.47721 18.1693 9.22476 17.8361C8.98301 17.5029 7.19235 15.1167 7.19235 12.6488C7.19235 10.1808 8.43961 8.97912 8.94237 8.46317C9.35527 8.03967 10.0377 7.84619 10.6924 7.84619C10.9042 7.84619 11.0946 7.85694 11.2657 7.86554C11.7685 7.88704 12.0209 7.91713 12.3525 8.7147C12.7654 9.71433 13.7709 12.1823 13.8908 12.4359C14.0127 12.6896 14.1346 13.0336 13.9635 13.3668C13.803 13.7107 13.6618 13.8634 13.4094 14.1557C13.1569 14.4481 12.9173 14.6717 12.6649 14.9855C12.4338 15.2586 12.1728 15.5509 12.4638 16.0561C12.7547 16.5506 13.7603 18.1994 15.2407 19.5237C17.1512 21.2328 18.7001 21.7788 19.2542 22.011C19.6671 22.1829 20.1591 22.1421 20.4608 21.8196C20.8437 21.4047 21.3165 20.7168 21.7979 20.0396C22.1402 19.5538 22.5724 19.4936 23.0259 19.6656C23.488 19.8268 25.9333 21.0414 26.4361 21.2929C26.9388 21.5466 27.2704 21.667 27.3924 21.8798C27.5122 22.0927 27.5122 23.0923 27.0993 24.2661Z" fill="#FAFAFA"/>
</svg>
