<svg id="Layer_1" data-name="Layer 1" xmlns="http://www.w3.org/2000/svg" viewBox="0 0 187.71 85.55"><defs><style>.cls-1{fill:#2b4386;}.cls-2{fill:#f37d20;}.cls-3{fill:#fff;}</style></defs><title>логотип</title><path class="cls-1" d="M2.46,54.59A9.27,9.27,0,0,1,5.63,51.7a10.47,10.47,0,0,1,3.31-1.18,19.86,19.86,0,0,1,3.78-.38,19.66,19.66,0,0,1,3.88.4,11.29,11.29,0,0,1,3.26,1.16,9.52,9.52,0,0,1,3.5,3.43,9.27,9.27,0,0,1-1.47,11.42,9.7,9.7,0,0,1,2.56,3.26,10.19,10.19,0,0,1,1.13,4.88,10.77,10.77,0,0,1-1.23,5.08,10,10,0,0,1-3.5,3.81,14.85,14.85,0,0,1-8.13,2,14.8,14.8,0,0,1-8.09-2,9.8,9.8,0,0,1-3.14-3.2A10.52,10.52,0,0,1,0,76.1L6.71,75a5.09,5.09,0,0,0,.48,1.94,3.63,3.63,0,0,0,1.23,1.46,5.45,5.45,0,0,0,1.87.92,7.68,7.68,0,0,0,2.19.31A7.32,7.32,0,0,0,17,78.37a4.2,4.2,0,0,0,1.75-3.68A4,4,0,0,0,17,71a7,7,0,0,0-4.3-1.23H10.59V63.67h2.13a6.78,6.78,0,0,0,3.59-1,3.13,3.13,0,0,0,1.52-2.84,3.09,3.09,0,0,0-1.52-2.79,6.19,6.19,0,0,0-3.59-.94,6.19,6.19,0,0,0-3.59.94,3.22,3.22,0,0,0-1.47,2.7L1,58.65A9,9,0,0,1,2.46,54.59Z"/><path class="cls-1" d="M49.84,79.6H35.94l-1.61,5.3H27.71L38.12,50.85h9.59L58.12,84.9H51.5Zm-1.84-6L42.84,56.9,37.78,73.55Z"/><path class="cls-1" d="M88.48,70.07a9.78,9.78,0,0,1,.61,3.38,11.58,11.58,0,0,1-4.77,9.34,10.85,10.85,0,0,1-3.17,1.59,11.69,11.69,0,0,1-3.45.52H62.14V50.85h23v6.43H68.57v5.16H77.7a11.31,11.31,0,0,1,5.17,1.23A10.75,10.75,0,0,1,86.82,67,12.1,12.1,0,0,1,88.48,70.07Zm-7,.45A5.39,5.39,0,0,0,79.73,69a4.51,4.51,0,0,0-2.08-.57H68.57V78.85h9.08a4.39,4.39,0,0,0,2-.52A5.87,5.87,0,0,0,81.34,77a5.1,5.1,0,0,0,1.23-3.55A5,5,0,0,0,81.53,70.52Z"/><path class="cls-1" d="M157,57.28H146.25V84.9h-6.44V57.28H129.08V50.85H157Z"/><path class="cls-1" d="M178.88,79.6H165l-1.61,5.3h-6.62l10.41-34.05h9.6l10.4,34.05h-6.62Zm-1.85-6L171.88,56.9l-5.06,16.65Z"/><path class="cls-1" d="M126.6,61a17.73,17.73,0,0,0-3.88-5.65A18.39,18.39,0,0,0,117,51.58a18.45,18.45,0,0,0-14,0,18.57,18.57,0,0,0-5.72,3.76A17.73,17.73,0,0,0,93.35,61a17.23,17.23,0,0,0-1.42,6.91,17,17,0,0,0,1.42,6.89,17.69,17.69,0,0,0,3.88,5.59A18.45,18.45,0,0,0,103,84.16a18.33,18.33,0,0,0,14,0,18.57,18.57,0,0,0,5.72-3.78,17.69,17.69,0,0,0,3.88-5.59A17,17,0,0,0,128,67.9,17.23,17.23,0,0,0,126.6,61Zm-5,6.91a11.49,11.49,0,0,1-7.08,10.69,12,12,0,0,1-9.07,0,11.63,11.63,0,0,1-3.72-2.47,11.7,11.7,0,0,1-2.48-12.76,11.32,11.32,0,0,1,6.19-6.14,12,12,0,0,1,4.56-.88,11.82,11.82,0,0,1,4.52.88,11.33,11.33,0,0,1,3.7,2.45,11.86,11.86,0,0,1,2.48,3.69A11.5,11.5,0,0,1,121.59,67.9Z"/><polygon class="cls-2" points="0.99 0 0.99 33.89 90.92 33.95 91.99 33.95 109.99 73.55 109.99 33.96 112.39 33.96 146.25 33.89 146.25 0 0.99 0"/><path class="cls-3" d="M22.48,20.28a5.52,5.52,0,0,1-1.86,1.61,5.23,5.23,0,0,1-2.44.58,5.35,5.35,0,0,1-2.8-.75,5.27,5.27,0,0,1-1.91-2.06,6,6,0,0,1-.7-2.91,6.15,6.15,0,0,1,.69-2.93,5.2,5.2,0,0,1,1.91-2,5.47,5.47,0,0,1,2.81-.73,6.07,6.07,0,0,1,2.41.44,6.18,6.18,0,0,1,1.87,1.33l.71.73,2.31-2.36-.7-.7a10.22,10.22,0,0,0-3-2.12,8.68,8.68,0,0,0-3.61-.72,9,9,0,0,0-4.59,1.18,8.31,8.31,0,0,0-3.2,3.27,9.39,9.39,0,0,0-1.14,4.62,9.4,9.4,0,0,0,1.13,4.56,8.72,8.72,0,0,0,7.8,4.56,8.52,8.52,0,0,0,4.06-1,8.34,8.34,0,0,0,3-2.61l.54-.77L23.1,19.44Z"/><path class="cls-3" d="M33,18.77l-.05.06V8H29.38V25.71H31.3l9.54-11V25.59h3.52V7.84H42.44Z"/><path class="cls-3" d="M62.27,20.28a5.46,5.46,0,0,1-1.87,1.61,5.16,5.16,0,0,1-2.43.58,5.18,5.18,0,0,1-4.72-2.81,6.44,6.44,0,0,1,0-5.84,5.2,5.2,0,0,1,1.91-2A5.45,5.45,0,0,1,58,11.08a6,6,0,0,1,2.4.44,6.1,6.1,0,0,1,1.88,1.33l.71.73,2.3-2.36-.69-.7a10.22,10.22,0,0,0-3-2.12A8.68,8.68,0,0,0,58,7.68a9,9,0,0,0-4.59,1.18,8.41,8.41,0,0,0-3.21,3.27A9.49,9.49,0,0,0,49,16.75a9.4,9.4,0,0,0,1.13,4.56A8.72,8.72,0,0,0,58,25.87a8.54,8.54,0,0,0,4.06-1,8.43,8.43,0,0,0,3-2.61l.54-.77-2.64-2.08Z"/><polygon class="cls-3" points="67.4 11.33 72.21 11.33 72.21 25.59 75.73 25.59 75.73 11.33 80.53 11.33 80.53 7.95 67.4 7.95 67.4 11.33"/><polygon class="cls-3" points="87.95 18.26 94.83 18.26 94.83 14.9 87.95 14.9 87.95 11.33 95.77 11.33 95.77 7.95 84.43 7.95 84.43 25.59 95.98 25.59 95.98 22.21 87.95 22.21 87.95 18.26"/><path class="cls-3" d="M114.53,7.82l-5.22,8.41-.12.19-.11-.17-5.19-8.43H102L99.49,25.59H103l1.44-10.39,4,6.53h1.46l4-6.49,1.46,10.35h3.49L116.39,7.82Z"/><path class="cls-3" d="M130.82,7.84H129l-7.54,16.29-.12,1.46h3.26L126.28,22h7.28l1.66,3.58h3.22v-1Zm2,11.29h-5.73l2.43-5.32h0l.41-1c.13.29.26.62.42,1Z"/></svg>